# xmcd CD database file
#
# Track frame offsets:
#       150
#       9520
#       25935
#       45740
#       50483
#       58428
#       89743
#       102283
#       112703
#       150615
#       155143
#       166860
#
# Disc length: 2655 seconds
#
# Revision: 6
# Processed by: cddbd v1.5.2PL0 Copyright (c) Steve Scherf et al.
# Submitted via: CDDBEditor PBVER-PBREV
#
DISCID=970a5d0c
DTITLE=Clemencic Consort - Ancient Dances from Hungary - Codex Kajoni, Codex Vietoris and Anonymous
DYEAR=1978
DGENRE=Classical
TTITLE0=Ötödik Tancz
TTITLE1=Duch Pane swu Swatuny
TTITLE2=U naseho Barty - Erdelyi Hajdutanc - Chodila, chodila
TTITLE3=Pro Clarinis XXIII et XXII
TTITLE4=Chorea hungarica - Chorea Tancz
TTITLE5=Pargamasca - Corant - Sarabanda - Coranta - Gagliarda
TTITLE6=Tantz - Chorea Tantz - Ritka
TTITLE7=O Gloriosa Domina
TTITLE8=Alia chorea No. 8 - Lopatkowany tanecz - Proportio - Alia chorea - Alia hungarica
TTITLE9=Pro Clarinis III et XI
TTITLE10=Lapozskas tancz - Tancz - Apor Lazar tancza
TTITLE11=Olach tancz (1st part) - Alia chorea - Alia polonica - Neradarobyla - Olach tancz (2nd part)
EXTD=
EXTT0=
EXTT1=
EXTT2=
EXTT3=
EXTT4=
EXTT5=
EXTT6=
EXTT7=
EXTT8=
EXTT9=
EXTT10=
EXTT11=
PLAYORDER=
